<?xml version="1.0" encoding="utf-8"?>
<!-- Generator: Adobe Illustrator 22.1.0, SVG Export Plug-In . SVG Version: 6.00 Build 0)  -->
<svg version="1.1" id="Слой_1" xmlns="http://www.w3.org/2000/svg" xmlns:xlink="http://www.w3.org/1999/xlink" x="0px" y="0px"
	 viewBox="0 0 395.7 374.6" style="enable-background:new 0 0 395.7 374.6;" xml:space="preserve">
<style type="text/css">
	.st0{fill:#C30000;}
</style>
<g id="LOGO">
	<path class="st0" d="M114,69.9L114,69.9l82.8-48.6l40.9,23.3c-15.7,17.1-28,38-36.6,52.5c-0.6,1-1.1,1.9-1.7,2.8l-2.2-1.2
		l-54.7,32.1c-0.5-0.8-0.9-1.6-1.4-2.5c-8.7-15.4-21.3-37.7-26.9-58.5L114,69.9z M341.3,150.5l-0.3-47l-82.9-47.2
		c-15.2,15.3-28.2,37.3-37.2,52.5c-0.5,0.9-1,1.7-1.5,2.4l54.9,31.3v2.5c1,0,2.1,0,3.2,0C294.4,145.2,318.7,145.5,341.3,150.5z
		 M301.4,293.1C301.4,293.2,301.4,293.2,301.4,293.1l40.7-23.8l-0.6-95.4l0,0l0,0c-20.8-5.5-46.4-5.8-64.1-6c-1,0-1.9,0-2.8,0
		l0.4,63.2l-2.2,1.3c0.5,0.9,1,1.8,1.6,2.8C282.6,249.8,294.5,271,301.4,293.1L301.4,293.1z M118.4,206.6c1,0,1.9,0,2.9,0l-0.4-63.2
		l1.9-1.1c-0.5-0.9-1-1.8-1.6-2.8c-8.2-14.7-20.2-35.8-27.1-57.9l0.4-0.2l0,0l-34.4,20.2l-1.7,1l-4.5,2.6l0,0l0.1,16.6v4.8v2.6
		l0.5,71.4v0.1C75.1,206.1,100.6,206.4,118.4,206.6z M176.3,263.4l-39.7-22.6l-15.3-8.7v-2.5c-1,0-2.1,0-3.3,0
		c-16.8-0.2-41.1-0.4-63.7-5.5v4.5l0.3,42.6l83,47.2l0,0l0,0c15.2-15.3,28.2-37.3,37.2-52.5C175.4,265,175.9,264.2,176.3,263.4z
		 M281.2,305c-5.6-20.8-18.2-43.1-26.9-58.5c-0.5-0.8-0.9-1.7-1.4-2.4L198.4,276l-2.1-1.2c-0.5,0.9-1.1,1.9-1.7,2.8
		C186,292.1,173.7,313,158,330l0,0l0,0l40.9,23.3L281.2,305C281.3,305,281.3,305,281.2,305L281.2,305z M136.9,206.1
		c-4,0-7.6,1.9-10,4.8c-1.8,0-3.7-0.1-5.7-0.1c-0.9,0-1.9,0-2.9,0c-17.7-0.2-42.9-0.5-64.1-5.8l0,0c-21.6-5.5-38.9-16.3-39.6-37.7
		c-0.5-14.9,13.3-30.8,39.1-45.4l0,0l-0.1-16.6c-35.8,18.4-54.4,40-53.6,62.4c1.1,31.5,26,45.7,54.3,52.2
		c22.5,5.1,47.1,5.4,63.8,5.6c1.1,0,2.2,0,3.2,0c1.7,0,3.2,0,4.7,0.1c2.3,3.7,6.3,6.1,10.9,6.1c7.1,0,12.8-5.7,12.8-12.8
		S144,206.1,136.9,206.1z M151.2,144c-2-3.5-5.4-5.7-9.2-6.2c-0.9-1.6-1.8-3.2-2.8-5c-0.5-0.8-0.9-1.7-1.4-2.6
		c-8.7-15.4-21.1-37.4-27-58.4l0,0c-6.1-21.4-5.3-41.8,12.9-53.2c12.6-7.9,33.3-3.9,58.8,11.2l0,0l14.3-8.4C163-0.4,135-5.7,116,6.2
		C89.2,22.9,89.4,51.5,98,79.3c6.8,22,18.9,43.5,27.1,58c0.5,1,1.1,1.9,1.6,2.8c0.8,1.4,1.6,2.8,2.3,4.1c-2,3.8-2.2,8.5,0.1,12.5
		c3.5,6.1,11.4,8.2,17.5,4.7C152.6,157.9,154.7,150.1,151.2,144z M212.1,125.2c2-3.5,2.2-7.6,0.8-11.1c0.9-1.5,1.9-3.1,2.9-4.9
		c0.5-0.8,1-1.7,1.5-2.5c9-15.2,21.9-36.9,37.1-52.6l0,0c15.5-15.9,33.5-25.5,52.5-15.4c13.1,7,20,26.9,19.7,56.5l0,0l14.4,8.2
		c1.9-40.3-7.5-67.1-27.3-77.7c-27.8-14.8-52.6-0.4-72.3,21c-15.7,16.9-28.2,38.1-36.7,52.5c-0.6,0.9-1.1,1.9-1.6,2.8
		c-0.8,1.4-1.6,2.8-2.4,4c-4.3,0.1-8.4,2.4-10.7,6.4c-3.5,6.1-1.4,13.9,4.7,17.5C200.7,133.4,208.5,131.3,212.1,125.2z M183.7,249.5
		c-2,3.5-2.2,7.6-0.8,11.1c-0.9,1.5-1.9,3.1-2.9,4.9c-0.5,0.8-1,1.7-1.5,2.5c-9,15.2-21.9,36.9-37.1,52.6l0,0
		c-15.5,15.9-33.5,25.5-52.5,15.4c-13.1-7-20-26.9-19.7-56.5l0,0l-14.4-8.2c-1.9,40.3,7.5,67.1,27.3,77.7
		c27.8,14.8,52.6,0.4,72.3-21c15.7-16.9,28.2-38.1,36.7-52.5c0.6-0.9,1.1-1.9,1.6-2.8c0.8-1.4,1.6-2.8,2.4-4
		c4.3-0.1,8.4-2.4,10.7-6.4c3.5-6.1,1.4-13.9-4.7-17.5C195.1,241.3,187.2,243.4,183.7,249.5z M244.5,230.6c2,3.5,5.4,5.7,9.2,6.2
		c0.9,1.6,1.8,3.2,2.8,5c0.5,0.8,0.9,1.7,1.4,2.6c8.7,15.4,21.1,37.4,27,58.4l0,0c6.1,21.4,5.3,41.8-12.9,53.2
		c-12.6,7.9-33.3,3.9-58.8-11.2l0,0l-14.3,8.4c33.9,21.8,61.9,27.1,80.9,15.2c26.8-16.7,26.6-45.3,18-73.1
		c-6.8-22-18.9-43.5-27.1-58c-0.5-1-1.1-1.9-1.6-2.8c-0.8-1.4-1.6-2.8-2.3-4.1c2-3.8,2.2-8.5-0.1-12.5c-3.5-6.1-11.4-8.2-17.5-4.7
		C243.1,216.7,241,224.5,244.5,230.6z M258.8,168.5c4,0,7.6-1.9,10-4.8c1.8,0,3.7,0.1,5.7,0.1c0.9,0,1.9,0,2.9,0
		c17.7,0.2,42.9,0.5,64.1,5.8l0,0c21.6,5.5,38.9,16.3,39.6,37.7c0.5,14.9-13.3,30.8-39.1,45.4l0,0l0.1,16.6
		c35.9-18.5,54.4-40.1,53.6-62.5c-1.1-31.5-26-45.7-54.3-52.2c-22.5-5.1-47.1-5.4-63.8-5.6c-1.1,0-2.2,0-3.2,0c-1.7,0-3.2,0-4.7-0.1
		c-2.3-3.7-6.3-6.1-10.9-6.1c-7.1,0-12.8,5.7-12.8,12.8C246,162.8,251.7,168.5,258.8,168.5z"/>
</g>
</svg>
